{"title":"Faster 2010 CAM XviD Feel-Free","uid":6015646,"size":823314618,"categoryP":"video","categoryS":"movies","magnet":"?xt=urn:btih:0be5c71bbf2adf910bed2fc6ceb6778d9c8d2ecd&amp;dn=Faster+2010+CAM+XviD+Feel-Free&amp;tr=udp%3A%2F%2Ftracker.openbittorrent.com%3A80&amp;tr=udp%3A%2F%2Fopen.demonii.com%3A1337&amp;tr=udp%3A%2F%2Ftracker.coppersurfer.tk%3A6969&amp;tr=udp%3A%2F%2Fexodus.desync.com%3A6969","seeders":0,"leechers":0,"uploader":"hiest","files":-1,"time":1291630319,"description":"Genre:Action | Crime | Drama\nLanguage:English\nIMDb:http://www.imdb.com/title/tt1433108/\nSource:IMAGiNE/LKRG Thx.\nSample:Yes\nSubtitles:Romana\n\n\nFormat : AVI\nFormat/Info : Audio Video Interleave\nFile size : 778 MiB\nDuration : 1h 33mn\nOverall bit rate : 1 163 Kbps\n\n\nVideo\nMuxing mode : Packed bitstream\nCodec ID : XVID\nCodec ID/Hint : XviD\nDuration : 1h 33mn\nBit rate : 960 Kbps\nWidth : 720 pixels\nHeight : 384 pixels\nDisplay aspect ratio : 1.875\nFrame rate : 29.970 fps\nColor space : YUV\nChroma subsampling : 4:2:0\nBit depth : 8 bits\nScan type : Progressive\nBits/(Pixel*Frame) : 0.116\nStream size : 642 MiB (82%)\nWriting library : XviD 1.2.1 (UTC 2008-12-04)\n\nAudio\nID : 1\nFormat : MPEG Audio\nFormat version : Version 1\nFormat profile : Layer 3\nCodec ID : 55\nCodec ID/Hint : MP3\nDuration : 1h 33mn\nBit rate mode : Constant\nBit rate : 192 Kbps\nChannel(s) : 2 channels\nSampling rate : 44.1 KHz\nStream size : 128 MiB (17%)\nAlignment : Split accross interleaves\nInterleave, duration : 33 ms (1.00 video frame)\nInterleave, preload duration : 500 ms\n\n\nPlot:\nAn ex-con sets out to avenge his brother's death after they were double-crossed during a heist years ago. During his campaign, however, he's tracked by a veteran cop and an egocentric hit man.\n\n\n\n\n================================== &lt;a href=&quot;\nhttp://thepiratebay.se/user/hiest&quot; rel=&quot;nofollow&quot; target=&quot;_NEW&quot;&gt;\nhttp://thepiratebay.se/user/hiest&lt;/a&gt;\n==================================\n\n","torrent":{"xt":"urn:btih:0be5c71bbf2adf910bed2fc6ceb6778d9c8d2ecd","amp;dn":"Faster+2010+CAM+XviD+Feel-Free","amp;tr":["udp%3A%2F%2Ftracker.openbittorrent.com%3A80","udp%3A%2F%2Fopen.demonii.com%3A1337","udp%3A%2F%2Ftracker.coppersurfer.tk%3A6969","udp%3A%2F%2Fexodus.desync.com%3A6969"],"infoHash":"0be5c71bbf2adf910bed2fc6ceb6778d9c8d2ecd","infoHashBuffer":{"type":"Buffer","data":[11,229,199,27,191,42,223,145,11,237,47,198,206,182,119,141,156,141,46,205]},"announce":[],"urlList":[]}}